:version 1.10
:name ASF
:units
  mass 1
  length 1
  angle deg
:documentation
  ASF file generated by Kaydara
:root
  axis xyz
  order  tx ty tz rx ry rz
  position 0 0 0
  orientation 0 0 0
:bonedata
  begin
    id 1
    name LeftUpLegDummy
    direction 1 -2.30186e-007 -8.31532e-007
    length 2.93387
    axis 0 0 0 xyz
  end
  begin
    id 2
    name LeftUpLeg
    direction -1.82929e-007 -1 -1.48925e-009
    length 17.3336
    axis -3.48766 0.00143442 -0.000521554 xyz
    dof rx ry rz
  end
  begin
    id 3
    name LeftLeg
    direction -1.82929e-007 -1 -5.23717e-011
    length 14.9995
    axis 3.68178 -0.00654042 -0.000282425 xyz
    dof rx ry rz
  end
  begin
    id 4
    name LeftFoot
    direction 8.31532e-007 -4.54534e-011 1
    length 6.74421
    axis 1.87234e-006 4.66016e-005 -5.96866e-006 xyz
    dof rx ry rz
  end
  begin
    id 5
    name LeftToes
    direction 0.00818058 -0.00485161 0.999955
    length 3.85048
    axis 1.06247e-005 4.65869e-005 -5.96999e-006 xyz
    dof rx ry rz
  end
  begin
    id 6
    name SpineDummy
    direction -5.8607e-008 0.943407 -0.331637
    length 5.93572
    axis 0 0 0 xyz
  end
  begin
    id 7
    name Spine
    direction -1.04988e-007 0.999988 0.00495137
    length 10.1015
    axis -0.001389 0.000121417 6.61666e-006 xyz
    dof rx ry rz
  end
  begin
    id 8
    name Spine1
    direction 0 0 0
    length 0
    axis -0.001389 0.00012144 6.56766e-006 xyz
    dof rx ry rz
  end
  begin
    id 9
    name RightShoulderDummy
    direction -0.98348 0.17941 -0.0240696
    length 3.59882
    axis -0.001389 0.00012144 6.56766e-006 xyz
  end
  begin
    id 10
    name RightShoulder
    direction -0.978693 0.204882 0.0135597
    length 2.70001
    axis 0.215806 0.000203631 -0.00679732 xyz
    dof rx ry rz
  end
  begin
    id 11
    name RightArm
    direction -1 3.85509e-006 8.31394e-007
    length 10.2459
    axis -23.2009 -0.134239 -0.964098 xyz
    dof rx ry rz
  end
  begin
    id 12
    name RightForeArm
    direction -1 3.85569e-006 8.3129e-007
    length 8.16799
    axis -9.92322 0.0658061 0.17887 xyz
    dof rx ry rz
  end
  begin
    id 13
    name RightHand
    direction -0.992843 -0.0414604 0.112003
    length 5.28593
    axis -0.00960638 0.00330669 -0.185225 xyz
    dof rx ry rz
  end
  begin
    id 14
    name LeftShoulder1Dummy
    direction 0.983523 0.179172 -0.0240748
    length 3.59866
    axis -0.001389 0.00012144 6.56766e-006 xyz
  end
  begin
    id 15
    name LeftShoulder1
    direction 0.978627 0.205195 0.0135605
    length 2.70019
    axis -0.001389 0.00012144 6.57583e-006 xyz
    dof rx ry rz
  end
  begin
    id 16
    name LeftArm
    direction 1 3.51895e-006 -8.60188e-007
    length 10.2459
    axis -23.1894 0.134785 0.967513 xyz
    dof rx ry rz
  end
  begin
    id 17
    name LeftForeArm
    direction 1 3.51921e-006 -7.32029e-007
    length 8.16799
    axis -9.91835 -0.0656957 -0.177789 xyz
    dof rx ry rz
  end
  begin
    id 18
    name LeftHand
    direction 0.992938 -0.0411636 0.11126
    length 5.32135
    axis -0.00960237 -0.00340661 0.185177 xyz
    dof rx ry rz
  end
  begin
    id 19
    name HEadDummy
    direction 1.01974e-006 0.999861 -0.016675
    length 2.99946
    axis -0.001389 0.00012144 6.56766e-006 xyz
  end
  begin
    id 20
    name HEad
    direction -0.0222689 0.980941 0.193023
    length 5.12695
    axis -0.001389 0.00012144 6.56766e-006 xyz
    dof rx ry rz
  end
  begin
    id 21
    name RightUpLegDummy
    direction -1 2.30186e-007 8.31532e-007
    length 2.93387
    axis 0 0 0 xyz
  end
  begin
    id 22
    name RightUpLeg
    direction -1.82966e-007 -1 1.56832e-007
    length 17.3336
    axis -3.4909 -0.000906625 0.00028951 xyz
    dof rx ry rz
  end
  begin
    id 23
    name RightLeg
    direction -1.82786e-007 -1 -1.80317e-007
    length 14.9995
    axis 3.68513 0.0193739 -0.131021 xyz
    dof rx ry rz
  end
  begin
    id 24
    name RightFoot
    direction 8.31721e-007 -4.63324e-011 1
    length 6.74421
    axis 4.81691e-005 -0.120479 -0.188785 xyz
    dof rx ry rz
  end
  begin
    id 25
    name RightToes
    direction 0.00124746 -0.014064 0.9999
    length 3.85082
    axis 0.000481921 0.542163 -0.142575 xyz
    dof rx ry rz
  end
:hierarchy
  begin
    root LeftUpLegDummy SpineDummy RightUpLegDummy
    LeftUpLegDummy LeftUpLeg
    LeftUpLeg LeftLeg
    LeftLeg LeftFoot
    LeftFoot LeftToes
    SpineDummy Spine
    Spine Spine1
    Spine1 RightShoulderDummy LeftShoulder1Dummy HEadDummy
    RightShoulderDummy RightShoulder
    RightShoulder RightArm
    RightArm RightForeArm
    RightForeArm RightHand
    LeftShoulder1Dummy LeftShoulder1
    LeftShoulder1 LeftArm
    LeftArm LeftForeArm
    LeftForeArm LeftHand
    HEadDummy HEad
    RightUpLegDummy RightUpLeg
    RightUpLeg RightLeg
    RightLeg RightFoot
    RightFoot RightToes
  end

:SAMPLES-PER-SECOND 30
:FULLY-SPECIFIED
:DEGREES
231
root  -0.275787 34.2975 18.4838 5.61843 2.63129 0.302254
LeftUpLeg  -4.66487 16.8202 3.35246
LeftLeg  15.1626 23.3354 4.59803
LeftFoot  0.253549 -0.00012827 0.0579633
LeftToes  -17.8772 1.92152e-006 4.03786e-008
Spine  2.11127 -4.13511 1.26025
Spine1  3.68569 -8.58441 2.61135
RightShoulder  0.0551327 2.47181 2.59416
RightArm  6.83342 2.66918 69.0568
RightForeArm  47.3676 69.3139 28.0355
RightHand  2.3935 -11.5826 -22.8946
LeftShoulder1  0.0593855 -6.52673 -2.79544
LeftArm  -49.8933 -33.4307 -74.1765
LeftForeArm  0.8902 -48.0802 -11.3168
LeftHand  1.23424 7.68929 17.8261
HEad  -3.54916 5.78639 -5.79888
RightUpLeg  -15.8234 -7.4527 -0.93558
RightLeg  8.36486 22.2756 1.78857
RightFoot  8.54692 -0.230287 3.45833
RightToes  -25.0655 -0.116825 -0.219232
232
root  -0.370474 34.304 18.5516 5.7204 3.77977 0.363794
LeftUpLeg  -4.66212 15.3603 3.55671
LeftLeg  14.8823 22.9646 4.41618
LeftFoot  0.616783 -0.00116486 0.216408
LeftToes  -18.3879 1.92152e-006 4.03786e-008
Spine  1.89217 -3.6357 0.798117
Spine1  3.30542 -7.5658 1.72393
RightShoulder  0.0561677 2.25163 3.71235
RightArm  5.43533 -0.616293 69.6175
RightForeArm  48.3991 69.5305 28.3895
RightHand  2.36522 -11.2888 -23.2126
LeftShoulder1  0.0564431 -6.60268 -5.63208
LeftArm  -45.1664 -28.034 -70.6228
LeftForeArm  2.73959 -49.9532 -12.1083
LeftHand  0.567212 7.41531 8.35849
HEad  -2.79933 4.43563 -7.01039
RightUpLeg  -15.6779 -8.2605 -0.887121
RightLeg  8.36363 22.0606 1.77163
RightFoot  8.29828 -0.21389 3.32508
RightToes  -25.0318 -0.117968 -0.220901
233
root  -0.465099 34.2723 18.586 5.49609 6.4323 0.149866
LeftUpLeg  -4.84022 13.8095 4.09941
LeftLeg  14.8734 21.9581 4.2296
LeftFoot  0.494941 0.00701825 0.150442
LeftToes  -18.647 1.92152e-006 4.03786e-008
Spine  1.8173 -3.33608 0.454828
Spine1  3.13336 -6.99727 1.10072
RightShoulder  0.0567323 2.09109 4.98295
RightArm  3.16071 -4.0753 70.0503
RightForeArm  48.3475 69.2971 28.007
RightHand  2.19094 -10.7851 -22.5196
LeftShoulder1  0.0569888 -7.88438 -7.0624
LeftArm  -40.6864 -22.1399 -65.8743
LeftForeArm  0.856736 -49.1792 -11.7713
LeftHand  0.442869 6.85231 7.01007
HEad  -1.7161 2.37884 -7.24152
RightUpLeg  -15.3837 -9.64538 -0.708109
RightLeg  8.95509 20.9586 1.89985
RightFoot  7.71629 -0.171799 2.92432
RightToes  -25.8375 -0.119374 -0.222882
234
root  -0.545193 34.2522 18.5976 5.32357 9.72907 -0.242323
LeftUpLeg  -5.06942 13.1123 4.75919
LeftLeg  14.1792 19.9407 3.61436
LeftFoot  0.345095 0.0132149 0.08113
LeftToes  -18.1272 1.92152e-006 4.03786e-008
Spine  1.82512 -3.16738 0.317873
Spine1  3.18923 -6.62068 0.803726
RightShoulder  0.0566307 1.75732 5.53332
RightArm  2.07886 -6.37038 71.0694
RightForeArm  45.9442 68.4761 26.7372
RightHand  2.03951 -10.5685 -21.4042
LeftShoulder1  0.0595632 -6.97447 -6.55992
LeftArm  -35.8839 -17.864 -66.093
LeftForeArm  4.02928 -46.5846 -10.7357
LeftHand  0.754383 5.91483 14.1377
HEad  -1.15596 -0.0267301 -6.68748
RightUpLeg  -14.9293 -11.241 -0.424412
RightLeg  9.03965 19.4583 1.79732
RightFoot  7.31527 -0.139669 2.56194
RightToes  -26.2584 -0.12103 -0.225139
235
root  -0.599443 34.256 18.5881 5.36164 13.2748 -0.502555
LeftUpLeg  -5.34322 12.773 5.17805
LeftLeg  12.7881 17.4006 2.7429
LeftFoot  0.738664 0.00632769 0.194172
LeftToes  -18.2467 1.92152e-006 4.03786e-008
Spine  1.57605 -2.77473 0.226399
Spine1  2.73488 -5.79654 0.61762
RightShoulder  0.0558986 1.46245 5.54439
RightArm  1.83721 -8.97231 72.5082
RightForeArm  42.4089 67.5627 25.4444
RightHand  2.10365 -11.0626 -21.0883
LeftShoulder1  0.0627072 -5.42393 -6.9464
LeftArm  -31.3049 -14.2589 -67.9353
LeftForeArm  8.78154 -41.5405 -8.98337
LeftHand  0.76289 5.17662 16.3643
HEad  0.506028 -3.84199 -5.71045
RightUpLeg  -14.4844 -12.6332 -0.345416
RightLeg  8.64294 17.6117 1.51108
RightFoot  7.20733 -0.117441 2.27111
RightToes  -26.8626 -0.122924 -0.22958
236
root  -0.605711 34.2727 18.5687 5.48614 17.0604 -0.716271
LeftUpLeg  -5.59481 12.029 5.5154
LeftLeg  11.1628 14.6142 1.89637
LeftFoot  1.53478 -0.00491888 0.367227
LeftToes  -19.3355 1.92152e-006 4.03786e-008
Spine  1.38106 -2.31428 -0.0325378
Spine1  2.37735 -4.84234 0.107599
RightShoulder  0.0547585 1.49604 5.4996
RightArm  1.55733 -10.8064 74.9151
RightForeArm  37.8259 65.9493 23.4148
RightHand  2.31902 -11.9386 -21.529
LeftShoulder1  0.0649614 -4.27006 -8.27551
LeftArm  -27.5155 -10.6974 -68.6264
LeftForeArm  13.1835 -35.8671 -7.3187
LeftHand  0.560346 4.57085 13.5806
HEad  1.60054 -8.24471 -4.05229
RightUpLeg  -14.1742 -13.5249 -0.43257
RightLeg  8.43305 14.9332 1.232
RightFoot  7.14111 -0.0912963 1.894
RightToes  -27.4494 -0.126757 -0.233854
237
root  -0.538913 34.273 18.5042 5.54706 20.4153 -0.998496
LeftUpLeg  -5.8585 11.148 5.78489
LeftLeg  9.79916 12.0737 1.28313
LeftFoot  2.08118 -0.00885226 0.415184
LeftToes  -20.0593 1.92152e-006 4.03786e-008
Spine  1.40717 -1.68716 -0.389316
Spine1  2.44476 -3.55793 -0.593247
RightShoulder  0.0533689 1.6565 5.56021
RightArm  0.896295 -10.8311 77.8147
RightForeArm  32.8687 63.6241 20.9437
RightHand  2.6222 -12.9753 -22.3781
LeftShoulder1  0.0664922 -3.79145 -9.54108
LeftArm  -24.1596 -7.11547 -68.1227
LeftForeArm  15.7844 -30.2677 -5.89937
LeftHand  0.396768 5.12331 8.46949
HEad  1.10941 -12.4319 -2.1682
RightUpLeg  -13.9249 -12.8602 -0.72484
RightLeg  8.32613 11.1256 0.901322
RightFoot  7.20136 -0.0597206 1.41205
RightToes  -28.5684 -0.134188 -0.241894
238
root  -0.40713 34.2369 18.3981 5.56025 23.0376 -1.3415
LeftUpLeg  -6.18745 10.6731 5.96707
LeftLeg  8.93332 9.75441 0.891154
LeftFoot  2.20044 -0.00656526 0.341845
LeftToes  -20.7368 1.92152e-006 4.03786e-008
Spine  1.52508 -1.07247 -0.69619
Spine1  2.65644 -2.41533 -1.09995
RightShoulder  0.0516835 2.16481 5.47406
RightArm  -0.425491 -9.29059 80.7088
RightForeArm  27.845 60.8928 18.5514
RightHand  2.96311 -14.2169 -23.0535
LeftShoulder1  0.0867671 -3.97632 -10.5231
LeftArm  -20.9108 -2.77255 -66.8274
LeftForeArm  17.4287 -24.986 -4.70609
LeftHand  0.290664 6.3138 4.89103
HEad  0.0827301 -15.6511 -0.728424
RightUpLeg  -13.8952 -11.4409 -1.09203
RightLeg  8.52603 7.25978 0.615652
RightFoot  7.21575 -0.0281892 0.915126
RightToes  -29.9247 -0.143403 -0.251442
239
root  -0.229938 34.1747 18.2811 5.5674 25.0327 -1.44426
LeftUpLeg  -6.65192 10.5744 5.77682
LeftLeg  8.85364 7.83017 0.705471
LeftFoot  1.90305 -0.00368157 0.221656
LeftToes  -21.2001 1.92152e-006 4.03786e-008
Spine  1.66114 -0.494377 -1.01867
Spine1  2.86368 -1.32125 -1.58536
RightShoulder  0.0496397 2.94752 4.87203
RightArm  -2.54854 -6.79141 83.3216
RightForeArm  23.7123 57.7627 16.3005
RightHand  3.34153 -15.2849 -24.1485
LeftShoulder1  0.125143 -4.22556 -11.3693
LeftArm  -17.0785 2.28012 -65.1764
LeftForeArm  17.9883 -21.2493 -3.92515
LeftHand  0.319793 7.65445 4.40369
HEad  -0.692508 -17.8361 -0.149531
RightUpLeg  -14.5157 -11.7831 -1.49034
RightLeg  10.1695 5.60466 0.637983
RightFoot  6.43566 -0.0117485 0.641671
RightToes  -30.3953 -0.146652 -0.254704
240
root  -0.034606 34.1269 18.1116 5.55298 26.7735 -1.3252
LeftUpLeg  -7.40484 10.1912 5.23126
LeftLeg  9.60575 6.59596 0.68177
LeftFoot  1.32237 -0.0015789 0.122602
LeftToes  -20.71 1.92152e-006 4.03786e-008
Spine  1.80482 0.152187 -1.28408
Spine1  3.14014 0.0428596 -2.08603
RightShoulder  0.0476969 3.21925 4.40476
RightArm  -4.6286 -3.74357 84.5892
RightForeArm  20.6198 54.8213 14.5338
RightHand  3.5917 -15.7977 -25.0886
LeftShoulder1  0.146102 -4.07542 -11.8837
LeftArm  -14.8459 6.94982 -64.3482
LeftForeArm  19.9037 -17.7962 -3.23956
LeftHand  0.477654 9.03964 5.66263
HEad  -1.19737 -19.4115 0.212969
RightUpLeg  -15.0528 -12.3459 -2.1186
RightLeg  11.6923 4.40237 0.620249
RightFoot  5.87793 -0.00331922 0.486829
RightToes  -30.9279 -0.150385 -0.258376
241
root  0.169364 34.1094 17.9306 5.41089 28.1871 -1.07359
LeftUpLeg  -8.09437 9.85318 4.58134
LeftLeg  10.8064 5.53378 0.68933
LeftFoot  0.627204 -0.000270978 0.049499
LeftToes  -19.7926 1.92152e-006 4.03786e-008
Spine  1.94036 0.91826 -1.49348
Spine1  3.45218 1.75857 -2.62431
RightShoulder  0.0459805 3.1566 4.31294
RightArm  -6.93664 -1.50966 84.2033
RightForeArm  18.7929 53.1071 13.6245
RightHand  3.80699 -16.1356 -26.0107
LeftShoulder1  0.140869 -3.77614 -11.8559
LeftArm  -15.7927 11.316 -64.1814
LeftForeArm  23.4351 -14.5724 -2.62376
LeftHand  0.640974 10.4318 6.63853
HEad  -1.43047 -21.0381 0.728161
RightUpLeg  -15.0849 -12.4604 -2.93734
RightLeg  12.5067 3.05798 0.475624
RightFoot  5.75656 0.00270952 0.368482
RightToes  -31.513 -0.154478 -0.262343
242
root  0.383246 34.1134 17.7648 5.20021 29.5497 -0.799229
LeftUpLeg  -8.42938 9.85643 3.96361
LeftLeg  11.5797 4.10381 0.567456
LeftFoot  0.226683 -4.96322e-005 0.0250809
LeftToes  -19.4654 1.92152e-006 4.03786e-008
Spine  2.07058 1.58578 -1.60609
Spine1  3.77767 3.31237 -3.06077
RightShoulder  0.0444475 2.97738 4.35887
RightArm  -10.1464 -0.615863 82.8902
RightForeArm  19.0807 52.4533 13.2983
RightHand  3.81604 -15.9513 -26.3697
LeftShoulder1  0.112468 -3.24364 -11.6323
LeftArm  -18.435 15.7892 -63.8417
LeftForeArm  25.1031 -12.5317 -2.24365
LeftHand  0.721121 11.2066 6.96603
HEad  -1.64518 -22.9798 1.32942
RightUpLeg  -14.6332 -12.637 -3.78709
RightLeg  12.5772 1.8285 0.287171
RightFoot  6.01368 0.00748484 0.273781
RightToes  -32.1731 -0.159168 -0.266782
243
root  0.619949 34.1288 17.623 5.02059 30.6813 -0.554295
LeftUpLeg  -8.25724 10.3408 3.35258
LeftLeg  11.4119 2.47739 0.334856
LeftFoot  0.153104 -0.00120355 0.0311033
LeftToes  -19.0897 1.92152e-006 4.03786e-008
Spine  2.07135 2.07165 -1.63409
Spine1  3.84236 4.47043 -3.33512
RightShoulder  0.0431589 2.73114 4.52158
RightArm  -12.9174 -0.769637 80.887
RightForeArm  20.1324 52.0708 13.1127
RightHand  3.77708 -15.3404 -27.1337
LeftShoulder1  0.0708765 -2.28543 -11.3466
LeftArm  -21.4147 20.6151 -63.1186
LeftForeArm  24.9361 -11.6345 -2.07883
LeftHand  0.675101 11.3751 6.3969
HEad  -1.385 -24.9959 1.68584
RightUpLeg  -13.8835 -12.6373 -4.6307
RightLeg  12.0293 0.678181 0.100639
RightFoot  6.54997 0.0133733 0.170943
RightToes  -32.88 -0.164247 -0.271476
244
root  0.85978 34.1459 17.5084 5.02932 31.5223 -0.284326
LeftUpLeg  -7.83394 10.0577 2.69544
LeftLeg  10.6041 1.95995 0.236683
LeftFoot  0.323733 -0.00268655 0.0459996
LeftToes  -18.621 1.92152e-006 4.03786e-008
Spine  1.96579 2.33688 -1.57931
Spine1  3.69267 5.12825 -3.391
RightShoulder  0.0420193 2.74134 4.4059
RightArm  -15.0607 -1.45667 78.5963
RightForeArm  21.1779 51.6382 12.9066
RightHand  3.75214 -14.7758 -27.9731
LeftShoulder1  0.0329423 -1.11599 -11.1881
LeftArm  -23.2936 25.4168 -62.0144
LeftForeArm  24.0074 -11.3172 -2.021
LeftHand  0.538623 11.3523 5.04212
HEad  -1.14626 -26.61 1.67622
RightUpLeg  -13.1613 -12.9125 -5.40985
RightLeg  11.1937 0.101542 0.0146541
RightFoot  7.18242 0.0173572 0.111772
RightToes  -33.7094 -0.170281 -0.276903
245
root  1.09144 34.1632 17.4171 5.11704 32.0721 -0.0500709
LeftUpLeg  -7.43642 9.58721 2.09276
LeftLeg  9.84025 1.87787 0.201452
LeftFoot  0.457286 -0.00354478 0.0543796
LeftToes  -18.2544 1.92152e-006 4.03786e-008
Spine  1.88374 2.49095 -1.52366
Spine1  3.57918 5.51191 -3.38932
RightShoulder  0.0412103 2.94063 4.31607
RightArm  -17.0075 -2.36367 76.2021
RightForeArm  22.2707 51.7008 12.9368
RightHand  3.7 -14.313 -28.4709
LeftShoulder1  0.00742345 -0.2938 -10.8435
LeftArm  -24.5286 29.6853 -61.0016
LeftForeArm  23.5543 -11.0281 -1.96833
LeftHand  0.425905 10.8633 4.1044
HEad  -1.31197 -27.9921 1.82856
RightUpLeg  -12.4174 -12.7442 -6.10859
RightLeg  10.0894 -0.655666 -0.0722156
RightFoot  7.87595 0.0254659 0.00761549
RightToes  -34.349 -0.174987 -0.281028
